<svg xmlns="http://www.w3.org/2000/svg" viewBox="0 0 800 450" width="800" height="450" role="img">
<defs>
<linearGradient id="bg" x1="0" y1="0" x2="1" y2="1">
<stop offset="0" stop-color="#FAF7F2"/>
<stop offset="1" stop-color="#F2ECE1"/>
</linearGradient>
</defs>
<rect width="800" height="450" fill="url(#bg)"/>
<circle cx="690" cy="80" r="130" fill="#2B5BD7" opacity="0.07"/>
<circle cx="110" cy="400" r="100" fill="#2B5BD7" opacity="0.05"/>
<g transform="translate(285 100) scale(2.3)"><path d="M32 12 h36 a8 8 0 0 1 8 8 v60 a8 8 0 0 1 -8 8 h-36 a8 8 0 0 1 -8 -8 v-60 a8 8 0 0 1 8 -8 Z" fill="#FAF7F2" stroke="#13294B" stroke-width="5" stroke-linecap="round" stroke-linejoin="round"/><rect x="35" y="26" width="12" height="12" rx="3" fill="#2B5BD7"/><rect x="53" y="26" width="12" height="12" rx="3" fill="#E8434E"/><rect x="35" y="44" width="12" height="12" rx="3" fill="#E8434E"/><rect x="53" y="44" width="12" height="12" rx="3" fill="#2B5BD7"/><circle cx="50" cy="74" r="3" fill="#13294B"/></g>
<rect x="44" y="406" width="52" height="8" rx="4" fill="#2B5BD7"/>
</svg>