<svg xmlns="http://www.w3.org/2000/svg" viewBox="0 0 800 450" width="800" height="450" role="img">
<defs>
<linearGradient id="bg" x1="0" y1="0" x2="1" y2="1">
<stop offset="0" stop-color="#FAF7F2"/>
<stop offset="1" stop-color="#F2ECE1"/>
</linearGradient>
</defs>
<rect width="800" height="450" fill="url(#bg)"/>
<circle cx="690" cy="80" r="130" fill="#E8434E" opacity="0.07"/>
<circle cx="110" cy="400" r="100" fill="#2B5BD7" opacity="0.05"/>
<g transform="translate(285 100) scale(2.3)"><path d="M40 78 v-30 M40 52 v-16 a4 4 0 0 1 8 0 v14 M48 50 v-18 a4 4 0 0 1 8 0 v16 M56 50 v-14 a4 4 0 0 1 8 0 v18 q0 22 -14 24 q-18 0 -22 -18" fill="#FAF7F2" stroke="#13294B" stroke-width="5" stroke-linecap="round" stroke-linejoin="round"/><path d="M30 24 l6 6 M46 18 v8 M62 24 l-6 6" fill="none" stroke="#E8434E" stroke-width="4" stroke-linecap="round" stroke-linejoin="round"/></g>
<rect x="44" y="406" width="52" height="8" rx="4" fill="#E8434E"/>
</svg>